<mxfile host="app.diagrams.net" modified="2024-05-30T16:42:28.258Z" agent="Mozilla/5.0 (X11; Ubuntu; Linux x86_64; rv:126.0) Gecko/20100101 Firefox/126.0" etag="Rabp5ed4RBBx90QVStDL" version="24.4.8" type="device" pages="4">
  <diagram name="Страница — 1" id="FIVD0eAq4sOtKdZ7Ir2p">
    <mxGraphModel dx="1247" dy="2317" grid="1" gridSize="10" guides="1" tooltips="1" connect="1" arrows="1" fold="1" page="1" pageScale="1" pageWidth="827" pageHeight="1169" background="none" math="0" shadow="0">
      <root>
        <mxCell id="0" />
        <mxCell id="1" parent="0" />
        <mxCell id="hQ9zTUEYJEaXmfzXQokc-3" style="edgeStyle=orthogonalEdgeStyle;rounded=0;orthogonalLoop=1;jettySize=auto;html=1;" edge="1" parent="1" source="hQ9zTUEYJEaXmfzXQokc-1" target="hQ9zTUEYJEaXmfzXQokc-2">
          <mxGeometry relative="1" as="geometry" />
        </mxCell>
        <mxCell id="hQ9zTUEYJEaXmfzXQokc-1" value="&lt;font style=&quot;font-size: 16px;&quot;&gt;Начало&lt;/font&gt;" style="ellipse;whiteSpace=wrap;html=1;" vertex="1" parent="1">
          <mxGeometry x="239" y="-1070" width="120" height="80" as="geometry" />
        </mxCell>
        <mxCell id="hQ9zTUEYJEaXmfzXQokc-9" style="edgeStyle=orthogonalEdgeStyle;rounded=0;orthogonalLoop=1;jettySize=auto;html=1;entryX=0.5;entryY=0;entryDx=0;entryDy=0;" edge="1" parent="1" source="hQ9zTUEYJEaXmfzXQokc-2" target="hQ9zTUEYJEaXmfzXQokc-8">
          <mxGeometry relative="1" as="geometry" />
        </mxCell>
        <mxCell id="hQ9zTUEYJEaXmfzXQokc-2" value="&lt;font style=&quot;font-size: 16px;&quot;&gt;n, array[n]&lt;/font&gt;" style="shape=parallelogram;perimeter=parallelogramPerimeter;whiteSpace=wrap;html=1;fixedSize=1;rounded=0;" vertex="1" parent="1">
          <mxGeometry x="239" y="-930" width="120" height="60" as="geometry" />
        </mxCell>
        <mxCell id="hQ9zTUEYJEaXmfzXQokc-7" value="&lt;div&gt;&lt;pre style=&quot;font-family:&#39;JetBrains Mono&#39;,monospace;font-size:13,5pt;&quot;&gt;&lt;font style=&quot;background-color: rgb(255, 255, 255);&quot; size=&quot;1&quot; color=&quot;#1a1a1a&quot;&gt;&lt;span style=&quot;font-style: italic; font-size: 14px;&quot;&gt;&#39;Нахождение индексов максимального и минимального элемента массива&#39;&lt;/span&gt;&lt;/font&gt;&lt;/pre&gt;&lt;/div&gt;" style="text;whiteSpace=wrap;html=1;strokeWidth=1;" vertex="1" parent="1">
          <mxGeometry x="59" y="-1140" width="520" height="60" as="geometry" />
        </mxCell>
        <mxCell id="hQ9zTUEYJEaXmfzXQokc-11" style="edgeStyle=orthogonalEdgeStyle;rounded=0;orthogonalLoop=1;jettySize=auto;html=1;entryX=0.5;entryY=0;entryDx=0;entryDy=0;" edge="1" parent="1" source="hQ9zTUEYJEaXmfzXQokc-8" target="hQ9zTUEYJEaXmfzXQokc-10">
          <mxGeometry relative="1" as="geometry" />
        </mxCell>
        <mxCell id="hQ9zTUEYJEaXmfzXQokc-8" value="&lt;div style=&quot;font-size: 16px;&quot;&gt;&lt;font style=&quot;font-size: 16px;&quot;&gt;&amp;nbsp; i_max = 0,&lt;/font&gt;&lt;/div&gt;&lt;div style=&quot;font-size: 16px;&quot;&gt;&lt;font style=&quot;font-size: 16px;&quot;&gt;i_min = 0&lt;/font&gt;&lt;/div&gt;" style="rounded=1;whiteSpace=wrap;html=1;" vertex="1" parent="1">
          <mxGeometry x="239" y="-810" width="120" height="60" as="geometry" />
        </mxCell>
        <mxCell id="hQ9zTUEYJEaXmfzXQokc-13" style="edgeStyle=orthogonalEdgeStyle;rounded=0;orthogonalLoop=1;jettySize=auto;html=1;entryX=0.5;entryY=0;entryDx=0;entryDy=0;" edge="1" parent="1" target="hQ9zTUEYJEaXmfzXQokc-12">
          <mxGeometry relative="1" as="geometry">
            <mxPoint x="299" y="-670" as="sourcePoint" />
          </mxGeometry>
        </mxCell>
        <mxCell id="hQ9zTUEYJEaXmfzXQokc-32" style="edgeStyle=orthogonalEdgeStyle;rounded=0;orthogonalLoop=1;jettySize=auto;html=1;entryX=0;entryY=0.5;entryDx=0;entryDy=0;" edge="1" parent="1" source="hQ9zTUEYJEaXmfzXQokc-10" target="hQ9zTUEYJEaXmfzXQokc-31">
          <mxGeometry relative="1" as="geometry" />
        </mxCell>
        <mxCell id="hQ9zTUEYJEaXmfzXQokc-10" value="&lt;div style=&quot;font-size: 16px;&quot;&gt;&lt;font style=&quot;font-size: 16px;&quot;&gt;i = 0, i &amp;lt; n,&lt;/font&gt;&lt;/div&gt;&lt;div style=&quot;font-size: 16px;&quot;&gt;&lt;font style=&quot;font-size: 16px;&quot;&gt;i++&lt;/font&gt;&lt;/div&gt;" style="shape=hexagon;perimeter=hexagonPerimeter2;whiteSpace=wrap;html=1;fixedSize=1;" vertex="1" parent="1">
          <mxGeometry x="239" y="-690" width="120" height="80" as="geometry" />
        </mxCell>
        <mxCell id="hQ9zTUEYJEaXmfzXQokc-16" style="edgeStyle=orthogonalEdgeStyle;rounded=0;orthogonalLoop=1;jettySize=auto;html=1;entryX=0.5;entryY=0;entryDx=0;entryDy=0;" edge="1" parent="1" source="hQ9zTUEYJEaXmfzXQokc-12" target="hQ9zTUEYJEaXmfzXQokc-15">
          <mxGeometry relative="1" as="geometry" />
        </mxCell>
        <mxCell id="gzVNzEX1_BKtKz5fREjf-5" style="edgeStyle=orthogonalEdgeStyle;rounded=0;orthogonalLoop=1;jettySize=auto;html=1;entryX=0;entryY=0.5;entryDx=0;entryDy=0;" edge="1" parent="1" source="hQ9zTUEYJEaXmfzXQokc-12" target="gzVNzEX1_BKtKz5fREjf-1">
          <mxGeometry relative="1" as="geometry" />
        </mxCell>
        <mxCell id="hQ9zTUEYJEaXmfzXQokc-12" value="&lt;font style=&quot;font-size: 16px;&quot;&gt;array[i_max] &amp;lt; i&lt;/font&gt;" style="rhombus;whiteSpace=wrap;html=1;" vertex="1" parent="1">
          <mxGeometry x="229" y="-540" width="140" height="90" as="geometry" />
        </mxCell>
        <mxCell id="hQ9zTUEYJEaXmfzXQokc-14" value="yes" style="text;html=1;align=center;verticalAlign=middle;resizable=0;points=[];autosize=1;strokeColor=none;fillColor=none;" vertex="1" parent="1">
          <mxGeometry x="299" y="-592" width="40" height="30" as="geometry" />
        </mxCell>
        <mxCell id="hQ9zTUEYJEaXmfzXQokc-25" style="edgeStyle=orthogonalEdgeStyle;rounded=0;orthogonalLoop=1;jettySize=auto;html=1;" edge="1" parent="1" source="hQ9zTUEYJEaXmfzXQokc-15">
          <mxGeometry relative="1" as="geometry">
            <mxPoint x="299" y="-270" as="targetPoint" />
          </mxGeometry>
        </mxCell>
        <mxCell id="hQ9zTUEYJEaXmfzXQokc-15" value="&lt;font style=&quot;font-size: 16px;&quot;&gt;i_max = i&lt;/font&gt;" style="rounded=1;whiteSpace=wrap;html=1;" vertex="1" parent="1">
          <mxGeometry x="239" y="-400" width="120" height="60" as="geometry" />
        </mxCell>
        <mxCell id="hQ9zTUEYJEaXmfzXQokc-26" style="edgeStyle=orthogonalEdgeStyle;rounded=0;orthogonalLoop=1;jettySize=auto;html=1;" edge="1" parent="1" source="hQ9zTUEYJEaXmfzXQokc-22">
          <mxGeometry relative="1" as="geometry">
            <mxPoint x="509" y="-270" as="targetPoint" />
          </mxGeometry>
        </mxCell>
        <mxCell id="hQ9zTUEYJEaXmfzXQokc-22" value="&lt;font style=&quot;font-size: 16px;&quot;&gt;i_min = i&lt;br&gt;&lt;/font&gt;" style="rounded=1;whiteSpace=wrap;html=1;" vertex="1" parent="1">
          <mxGeometry x="449" y="-400" width="120" height="60" as="geometry" />
        </mxCell>
        <mxCell id="hQ9zTUEYJEaXmfzXQokc-27" value="yes" style="text;html=1;align=center;verticalAlign=middle;resizable=0;points=[];autosize=1;strokeColor=none;fillColor=none;" vertex="1" parent="1">
          <mxGeometry x="299" y="-450" width="40" height="30" as="geometry" />
        </mxCell>
        <mxCell id="hQ9zTUEYJEaXmfzXQokc-29" value="no" style="text;html=1;align=center;verticalAlign=middle;resizable=0;points=[];autosize=1;strokeColor=none;fillColor=none;" vertex="1" parent="1">
          <mxGeometry x="359" y="-530" width="40" height="30" as="geometry" />
        </mxCell>
        <mxCell id="hQ9zTUEYJEaXmfzXQokc-30" value="no" style="text;html=1;align=center;verticalAlign=middle;resizable=0;points=[];autosize=1;strokeColor=none;fillColor=none;" vertex="1" parent="1">
          <mxGeometry x="569" y="-530" width="40" height="30" as="geometry" />
        </mxCell>
        <mxCell id="hQ9zTUEYJEaXmfzXQokc-34" style="edgeStyle=orthogonalEdgeStyle;rounded=0;orthogonalLoop=1;jettySize=auto;html=1;entryX=0;entryY=0.5;entryDx=0;entryDy=0;" edge="1" parent="1" source="hQ9zTUEYJEaXmfzXQokc-31" target="hQ9zTUEYJEaXmfzXQokc-33">
          <mxGeometry relative="1" as="geometry" />
        </mxCell>
        <mxCell id="hQ9zTUEYJEaXmfzXQokc-31" value="&lt;div style=&quot;font-size: 16px;&quot;&gt;&lt;font style=&quot;font-size: 16px;&quot;&gt;&amp;nbsp; i_max,&lt;font style=&quot;font-size: 16px;&quot;&gt;&lt;br&gt;&lt;/font&gt;&lt;/font&gt;&lt;/div&gt;&lt;div style=&quot;font-size: 16px;&quot;&gt;&lt;font style=&quot;font-size: 16px;&quot;&gt;&lt;font style=&quot;font-size: 16px;&quot;&gt;i_min&lt;/font&gt;&lt;br&gt;&lt;/font&gt;&lt;/div&gt;" style="shape=document;whiteSpace=wrap;html=1;boundedLbl=1;" vertex="1" parent="1">
          <mxGeometry x="449" y="-690" width="120" height="80" as="geometry" />
        </mxCell>
        <mxCell id="hQ9zTUEYJEaXmfzXQokc-33" value="&lt;font style=&quot;font-size: 16px;&quot;&gt;Конец&lt;/font&gt;" style="ellipse;whiteSpace=wrap;html=1;" vertex="1" parent="1">
          <mxGeometry x="649" y="-690" width="120" height="80" as="geometry" />
        </mxCell>
        <mxCell id="gzVNzEX1_BKtKz5fREjf-2" style="edgeStyle=orthogonalEdgeStyle;rounded=0;orthogonalLoop=1;jettySize=auto;html=1;entryX=0.5;entryY=0;entryDx=0;entryDy=0;" edge="1" parent="1" source="gzVNzEX1_BKtKz5fREjf-1" target="hQ9zTUEYJEaXmfzXQokc-22">
          <mxGeometry relative="1" as="geometry" />
        </mxCell>
        <mxCell id="gzVNzEX1_BKtKz5fREjf-4" style="edgeStyle=orthogonalEdgeStyle;rounded=0;orthogonalLoop=1;jettySize=auto;html=1;exitX=1;exitY=0.5;exitDx=0;exitDy=0;entryX=0;entryY=0.5;entryDx=0;entryDy=0;" edge="1" parent="1" source="gzVNzEX1_BKtKz5fREjf-1" target="hQ9zTUEYJEaXmfzXQokc-10">
          <mxGeometry relative="1" as="geometry">
            <mxPoint x="239" y="-710" as="targetPoint" />
            <Array as="points">
              <mxPoint x="629" y="-495" />
              <mxPoint x="629" y="-270" />
              <mxPoint x="179" y="-270" />
              <mxPoint x="179" y="-650" />
            </Array>
          </mxGeometry>
        </mxCell>
        <mxCell id="gzVNzEX1_BKtKz5fREjf-1" value="&lt;font style=&quot;font-size: 16px;&quot;&gt;array[i_min] &amp;gt; i&lt;/font&gt;" style="rhombus;whiteSpace=wrap;html=1;" vertex="1" parent="1">
          <mxGeometry x="439" y="-540" width="140" height="90" as="geometry" />
        </mxCell>
        <mxCell id="gzVNzEX1_BKtKz5fREjf-6" value="yes" style="text;html=1;align=center;verticalAlign=middle;resizable=0;points=[];autosize=1;strokeColor=none;fillColor=none;" vertex="1" parent="1">
          <mxGeometry x="509" y="-450" width="40" height="30" as="geometry" />
        </mxCell>
        <mxCell id="0ec8Cf6-SzGbPbqyilBy-1" value="no" style="text;html=1;align=center;verticalAlign=middle;resizable=0;points=[];autosize=1;strokeColor=none;fillColor=none;" vertex="1" parent="1">
          <mxGeometry x="369" y="-690" width="40" height="30" as="geometry" />
        </mxCell>
      </root>
    </mxGraphModel>
  </diagram>
  <diagram id="q1pH9jOkdzhkefg1gbqK" name="Страница — 2">
    <mxGraphModel dx="1069" dy="984" grid="1" gridSize="10" guides="1" tooltips="1" connect="1" arrows="1" fold="1" page="1" pageScale="1" pageWidth="827" pageHeight="1169" math="0" shadow="0">
      <root>
        <mxCell id="0" />
        <mxCell id="1" parent="0" />
        <mxCell id="FLNoyC6jMGXI6C6TZTVV-7" style="edgeStyle=orthogonalEdgeStyle;rounded=0;orthogonalLoop=1;jettySize=auto;html=1;entryX=0.5;entryY=0;entryDx=0;entryDy=0;" edge="1" parent="1" source="FLNoyC6jMGXI6C6TZTVV-1" target="FLNoyC6jMGXI6C6TZTVV-6">
          <mxGeometry relative="1" as="geometry" />
        </mxCell>
        <mxCell id="FLNoyC6jMGXI6C6TZTVV-1" value="&lt;font style=&quot;font-size: 16px;&quot;&gt;Начало&lt;/font&gt;" style="ellipse;whiteSpace=wrap;html=1;" vertex="1" parent="1">
          <mxGeometry x="205" y="100" width="120" height="80" as="geometry" />
        </mxCell>
        <mxCell id="FLNoyC6jMGXI6C6TZTVV-2" value="&lt;div style=&quot;color: rgb(255, 241, 243);&quot;&gt;&lt;pre style=&quot;font-family:&#39;JetBrains Mono&#39;,monospace;font-size:13,5pt;&quot;&gt;&lt;span style=&quot;color: rgb(114, 105, 106); font-style: italic; background-color: rgb(255, 255, 255);&quot;&gt;&#39;Задание на «разворот» массива. Нужно перевернуть массив и записать его в обратном порядке.&#39;&lt;/span&gt;&lt;/pre&gt;&lt;/div&gt;" style="text;whiteSpace=wrap;html=1;" vertex="1" parent="1">
          <mxGeometry x="20" y="20" width="560" height="60" as="geometry" />
        </mxCell>
        <mxCell id="ANqxX7pp9KbcfuojcCNL-2" style="edgeStyle=orthogonalEdgeStyle;rounded=0;orthogonalLoop=1;jettySize=auto;html=1;entryX=0.5;entryY=0;entryDx=0;entryDy=0;" edge="1" parent="1" source="FLNoyC6jMGXI6C6TZTVV-6" target="ANqxX7pp9KbcfuojcCNL-1">
          <mxGeometry relative="1" as="geometry" />
        </mxCell>
        <mxCell id="FLNoyC6jMGXI6C6TZTVV-6" value="&lt;font style=&quot;font-size: 16px;&quot;&gt;n, array[n]&lt;/font&gt;" style="shape=parallelogram;perimeter=parallelogramPerimeter;whiteSpace=wrap;html=1;fixedSize=1;" vertex="1" parent="1">
          <mxGeometry x="205" y="240" width="120" height="60" as="geometry" />
        </mxCell>
        <mxCell id="ANqxX7pp9KbcfuojcCNL-4" style="edgeStyle=orthogonalEdgeStyle;rounded=0;orthogonalLoop=1;jettySize=auto;html=1;entryX=0.5;entryY=0;entryDx=0;entryDy=0;" edge="1" parent="1" source="ANqxX7pp9KbcfuojcCNL-1" target="ANqxX7pp9KbcfuojcCNL-3">
          <mxGeometry relative="1" as="geometry" />
        </mxCell>
        <mxCell id="ANqxX7pp9KbcfuojcCNL-1" value="&lt;div style=&quot;font-size: 16px;&quot;&gt;&lt;font style=&quot;font-size: 16px;&quot;&gt;i = 0, i &amp;lt; n/2,&lt;/font&gt;&lt;/div&gt;&lt;div style=&quot;font-size: 16px;&quot;&gt;&lt;font style=&quot;font-size: 16px;&quot;&gt;&lt;font style=&quot;font-size: 16px;&quot;&gt;i++&lt;/font&gt;&lt;br&gt;&lt;/font&gt; &lt;/div&gt;" style="shape=hexagon;perimeter=hexagonPerimeter2;whiteSpace=wrap;html=1;fixedSize=1;" vertex="1" parent="1">
          <mxGeometry x="205" y="360" width="120" height="80" as="geometry" />
        </mxCell>
        <mxCell id="_nKLoPCQiZeCiYywiPJ4-2" style="edgeStyle=orthogonalEdgeStyle;rounded=0;orthogonalLoop=1;jettySize=auto;html=1;exitX=0;exitY=0.5;exitDx=0;exitDy=0;entryX=0;entryY=0.5;entryDx=0;entryDy=0;" edge="1" parent="1" source="ANqxX7pp9KbcfuojcCNL-3" target="ANqxX7pp9KbcfuojcCNL-1">
          <mxGeometry relative="1" as="geometry">
            <mxPoint x="130" y="390" as="targetPoint" />
            <Array as="points">
              <mxPoint x="140" y="530" />
              <mxPoint x="140" y="400" />
            </Array>
          </mxGeometry>
        </mxCell>
        <mxCell id="ANqxX7pp9KbcfuojcCNL-3" value="&lt;div style=&quot;font-size: 15px;&quot;&gt;&lt;font style=&quot;font-size: 15px;&quot;&gt;tmp = array[i]&lt;/font&gt;&lt;/div&gt;&lt;div style=&quot;font-size: 15px;&quot;&gt;&lt;font style=&quot;font-size: 15px;&quot;&gt;&lt;font style=&quot;font-size: 15px;&quot;&gt;array[i] = arrray[n-1-i]&lt;/font&gt;&lt;/font&gt;&lt;/div&gt;&lt;div style=&quot;font-size: 15px;&quot;&gt;&lt;font style=&quot;font-size: 15px;&quot;&gt;&lt;font style=&quot;font-size: 15px;&quot;&gt;array[n-1-i] = tmp&lt;br&gt;&lt;/font&gt;&lt;/font&gt;&lt;/div&gt;" style="rounded=1;whiteSpace=wrap;html=1;" vertex="1" parent="1">
          <mxGeometry x="190" y="490" width="150" height="80" as="geometry" />
        </mxCell>
        <mxCell id="ANqxX7pp9KbcfuojcCNL-5" value="yes" style="text;html=1;align=center;verticalAlign=middle;resizable=0;points=[];autosize=1;strokeColor=none;fillColor=none;" vertex="1" parent="1">
          <mxGeometry x="266" y="448" width="40" height="30" as="geometry" />
        </mxCell>
        <mxCell id="ANqxX7pp9KbcfuojcCNL-9" style="edgeStyle=orthogonalEdgeStyle;rounded=0;orthogonalLoop=1;jettySize=auto;html=1;entryX=0;entryY=0.5;entryDx=0;entryDy=0;" edge="1" parent="1" source="ANqxX7pp9KbcfuojcCNL-6" target="ANqxX7pp9KbcfuojcCNL-8">
          <mxGeometry relative="1" as="geometry" />
        </mxCell>
        <mxCell id="ANqxX7pp9KbcfuojcCNL-6" value="&lt;font style=&quot;font-size: 16px;&quot;&gt;array&lt;/font&gt;" style="shape=document;whiteSpace=wrap;html=1;boundedLbl=1;" vertex="1" parent="1">
          <mxGeometry x="395" y="360" width="120" height="80" as="geometry" />
        </mxCell>
        <mxCell id="ANqxX7pp9KbcfuojcCNL-7" style="edgeStyle=orthogonalEdgeStyle;rounded=0;orthogonalLoop=1;jettySize=auto;html=1;entryX=0;entryY=0.5;entryDx=0;entryDy=0;" edge="1" parent="1" source="ANqxX7pp9KbcfuojcCNL-1" target="ANqxX7pp9KbcfuojcCNL-6">
          <mxGeometry relative="1" as="geometry" />
        </mxCell>
        <mxCell id="ANqxX7pp9KbcfuojcCNL-8" value="&lt;div style=&quot;font-size: 13px;&quot;&gt;&lt;font style=&quot;font-size: 16px;&quot;&gt;Конец&lt;/font&gt;&lt;/div&gt;" style="ellipse;whiteSpace=wrap;html=1;strokeWidth=1;" vertex="1" parent="1">
          <mxGeometry x="585" y="360" width="120" height="80" as="geometry" />
        </mxCell>
        <mxCell id="_nKLoPCQiZeCiYywiPJ4-1" value="no" style="text;html=1;align=center;verticalAlign=middle;resizable=0;points=[];autosize=1;strokeColor=none;fillColor=none;" vertex="1" parent="1">
          <mxGeometry x="325" y="360" width="40" height="30" as="geometry" />
        </mxCell>
      </root>
    </mxGraphModel>
  </diagram>
  <diagram id="IHoztCsML1s3JbunVZqN" name="Страница — 3">
    <mxGraphModel dx="1151" dy="1060" grid="1" gridSize="10" guides="1" tooltips="1" connect="1" arrows="1" fold="1" page="1" pageScale="1" pageWidth="827" pageHeight="1169" math="0" shadow="0">
      <root>
        <mxCell id="0" />
        <mxCell id="1" parent="0" />
        <mxCell id="3AJcBysjbdJ7zuz8G0LN-1" value="&lt;div style=&quot;color: rgb(255, 241, 243);&quot;&gt;&lt;pre style=&quot;font-family:&#39;JetBrains Mono&#39;,monospace;font-size:13,5pt;&quot;&gt;&lt;span style=&quot;color: rgb(114, 105, 106); font-style: italic; background-color: rgb(255, 255, 255);&quot;&gt;&#39;Найти сумму элементов массива, лежащих между максимальным и минимальным по значению элементами&#39;&lt;/span&gt;&lt;/pre&gt;&lt;/div&gt;" style="text;whiteSpace=wrap;html=1;" vertex="1" parent="1">
          <mxGeometry x="40" y="30" width="560" height="60" as="geometry" />
        </mxCell>
        <mxCell id="cRULP11xyFXxVPSpq_Kn-2" style="edgeStyle=orthogonalEdgeStyle;rounded=0;orthogonalLoop=1;jettySize=auto;html=1;entryX=0.5;entryY=0;entryDx=0;entryDy=0;" edge="1" parent="1" source="3AJcBysjbdJ7zuz8G0LN-2" target="cRULP11xyFXxVPSpq_Kn-1">
          <mxGeometry relative="1" as="geometry" />
        </mxCell>
        <mxCell id="3AJcBysjbdJ7zuz8G0LN-2" value="&lt;font style=&quot;font-size: 16px;&quot;&gt;Начало&lt;/font&gt;" style="ellipse;whiteSpace=wrap;html=1;" vertex="1" parent="1">
          <mxGeometry x="70" y="100" width="120" height="80" as="geometry" />
        </mxCell>
        <mxCell id="cRULP11xyFXxVPSpq_Kn-4" style="edgeStyle=orthogonalEdgeStyle;rounded=0;orthogonalLoop=1;jettySize=auto;html=1;entryX=0.5;entryY=0;entryDx=0;entryDy=0;" edge="1" parent="1" source="cRULP11xyFXxVPSpq_Kn-1" target="cRULP11xyFXxVPSpq_Kn-3">
          <mxGeometry relative="1" as="geometry" />
        </mxCell>
        <mxCell id="cRULP11xyFXxVPSpq_Kn-1" value="n, array[n]" style="shape=parallelogram;perimeter=parallelogramPerimeter;whiteSpace=wrap;html=1;fixedSize=1;" vertex="1" parent="1">
          <mxGeometry x="70" y="230" width="120" height="60" as="geometry" />
        </mxCell>
        <mxCell id="kIITiGrVpUH5rOBRVPct-23" style="edgeStyle=orthogonalEdgeStyle;rounded=0;orthogonalLoop=1;jettySize=auto;html=1;entryX=0.5;entryY=0;entryDx=0;entryDy=0;" edge="1" parent="1" source="cRULP11xyFXxVPSpq_Kn-3" target="kIITiGrVpUH5rOBRVPct-3">
          <mxGeometry relative="1" as="geometry" />
        </mxCell>
        <mxCell id="cRULP11xyFXxVPSpq_Kn-3" value="&lt;div&gt;&amp;nbsp;&amp;nbsp; i_max = 0,&lt;/div&gt;&lt;div&gt;i_min = 0,&lt;/div&gt;&lt;div&gt;sum_nums = 0&lt;br&gt;&lt;/div&gt;" style="rounded=1;whiteSpace=wrap;html=1;" vertex="1" parent="1">
          <mxGeometry x="70" y="340" width="120" height="60" as="geometry" />
        </mxCell>
        <mxCell id="kIITiGrVpUH5rOBRVPct-1" style="edgeStyle=orthogonalEdgeStyle;rounded=0;orthogonalLoop=1;jettySize=auto;html=1;entryX=0.5;entryY=0;entryDx=0;entryDy=0;" edge="1" target="kIITiGrVpUH5rOBRVPct-6" parent="1">
          <mxGeometry relative="1" as="geometry">
            <mxPoint x="130" y="480" as="sourcePoint" />
          </mxGeometry>
        </mxCell>
        <mxCell id="kIITiGrVpUH5rOBRVPct-2" style="edgeStyle=orthogonalEdgeStyle;rounded=0;orthogonalLoop=1;jettySize=auto;html=1;entryX=0;entryY=0.5;entryDx=0;entryDy=0;" edge="1" source="kIITiGrVpUH5rOBRVPct-3" parent="1">
          <mxGeometry relative="1" as="geometry">
            <mxPoint x="280" y="500" as="targetPoint" />
          </mxGeometry>
        </mxCell>
        <mxCell id="kIITiGrVpUH5rOBRVPct-3" value="&lt;div style=&quot;font-size: 16px;&quot;&gt;&lt;font style=&quot;font-size: 16px;&quot;&gt;i = 0, i &amp;lt; n,&lt;/font&gt;&lt;/div&gt;&lt;div style=&quot;font-size: 16px;&quot;&gt;&lt;font style=&quot;font-size: 16px;&quot;&gt;i++&lt;/font&gt;&lt;/div&gt;" style="shape=hexagon;perimeter=hexagonPerimeter2;whiteSpace=wrap;html=1;fixedSize=1;" vertex="1" parent="1">
          <mxGeometry x="70" y="460" width="120" height="80" as="geometry" />
        </mxCell>
        <mxCell id="kIITiGrVpUH5rOBRVPct-4" style="edgeStyle=orthogonalEdgeStyle;rounded=0;orthogonalLoop=1;jettySize=auto;html=1;entryX=0.5;entryY=0;entryDx=0;entryDy=0;" edge="1" source="kIITiGrVpUH5rOBRVPct-6" target="kIITiGrVpUH5rOBRVPct-9" parent="1">
          <mxGeometry relative="1" as="geometry" />
        </mxCell>
        <mxCell id="kIITiGrVpUH5rOBRVPct-5" style="edgeStyle=orthogonalEdgeStyle;rounded=0;orthogonalLoop=1;jettySize=auto;html=1;entryX=0;entryY=0.5;entryDx=0;entryDy=0;" edge="1" source="kIITiGrVpUH5rOBRVPct-6" target="kIITiGrVpUH5rOBRVPct-20" parent="1">
          <mxGeometry relative="1" as="geometry" />
        </mxCell>
        <mxCell id="kIITiGrVpUH5rOBRVPct-6" value="&lt;font style=&quot;font-size: 16px;&quot;&gt;array[i_max] &amp;lt; i&lt;/font&gt;" style="rhombus;whiteSpace=wrap;html=1;" vertex="1" parent="1">
          <mxGeometry x="60" y="610" width="140" height="90" as="geometry" />
        </mxCell>
        <mxCell id="kIITiGrVpUH5rOBRVPct-7" value="yes" style="text;html=1;align=center;verticalAlign=middle;resizable=0;points=[];autosize=1;strokeColor=none;fillColor=none;" vertex="1" parent="1">
          <mxGeometry x="130" y="558" width="40" height="30" as="geometry" />
        </mxCell>
        <mxCell id="kIITiGrVpUH5rOBRVPct-8" style="edgeStyle=orthogonalEdgeStyle;rounded=0;orthogonalLoop=1;jettySize=auto;html=1;" edge="1" source="kIITiGrVpUH5rOBRVPct-9" parent="1">
          <mxGeometry relative="1" as="geometry">
            <mxPoint x="130" y="880" as="targetPoint" />
          </mxGeometry>
        </mxCell>
        <mxCell id="kIITiGrVpUH5rOBRVPct-9" value="&lt;font style=&quot;font-size: 16px;&quot;&gt;i_max = i&lt;/font&gt;" style="rounded=1;whiteSpace=wrap;html=1;" vertex="1" parent="1">
          <mxGeometry x="70" y="750" width="120" height="60" as="geometry" />
        </mxCell>
        <mxCell id="kIITiGrVpUH5rOBRVPct-10" style="edgeStyle=orthogonalEdgeStyle;rounded=0;orthogonalLoop=1;jettySize=auto;html=1;" edge="1" source="kIITiGrVpUH5rOBRVPct-11" parent="1">
          <mxGeometry relative="1" as="geometry">
            <mxPoint x="340" y="880" as="targetPoint" />
          </mxGeometry>
        </mxCell>
        <mxCell id="kIITiGrVpUH5rOBRVPct-11" value="&lt;font style=&quot;font-size: 16px;&quot;&gt;i_min = i&lt;br&gt;&lt;/font&gt;" style="rounded=1;whiteSpace=wrap;html=1;" vertex="1" parent="1">
          <mxGeometry x="280" y="750" width="120" height="60" as="geometry" />
        </mxCell>
        <mxCell id="kIITiGrVpUH5rOBRVPct-12" value="yes" style="text;html=1;align=center;verticalAlign=middle;resizable=0;points=[];autosize=1;strokeColor=none;fillColor=none;" vertex="1" parent="1">
          <mxGeometry x="130" y="700" width="40" height="30" as="geometry" />
        </mxCell>
        <mxCell id="kIITiGrVpUH5rOBRVPct-13" value="no" style="text;html=1;align=center;verticalAlign=middle;resizable=0;points=[];autosize=1;strokeColor=none;fillColor=none;" vertex="1" parent="1">
          <mxGeometry x="190" y="620" width="40" height="30" as="geometry" />
        </mxCell>
        <mxCell id="kIITiGrVpUH5rOBRVPct-14" value="no" style="text;html=1;align=center;verticalAlign=middle;resizable=0;points=[];autosize=1;strokeColor=none;fillColor=none;" vertex="1" parent="1">
          <mxGeometry x="400" y="620" width="40" height="30" as="geometry" />
        </mxCell>
        <mxCell id="kIITiGrVpUH5rOBRVPct-18" style="edgeStyle=orthogonalEdgeStyle;rounded=0;orthogonalLoop=1;jettySize=auto;html=1;entryX=0.5;entryY=0;entryDx=0;entryDy=0;" edge="1" source="kIITiGrVpUH5rOBRVPct-20" target="kIITiGrVpUH5rOBRVPct-11" parent="1">
          <mxGeometry relative="1" as="geometry" />
        </mxCell>
        <mxCell id="kIITiGrVpUH5rOBRVPct-19" style="edgeStyle=orthogonalEdgeStyle;rounded=0;orthogonalLoop=1;jettySize=auto;html=1;exitX=1;exitY=0.5;exitDx=0;exitDy=0;entryX=0;entryY=0.5;entryDx=0;entryDy=0;" edge="1" source="kIITiGrVpUH5rOBRVPct-20" target="kIITiGrVpUH5rOBRVPct-3" parent="1">
          <mxGeometry relative="1" as="geometry">
            <mxPoint x="70" y="440" as="targetPoint" />
            <Array as="points">
              <mxPoint x="460" y="655" />
              <mxPoint x="460" y="880" />
              <mxPoint x="10" y="880" />
              <mxPoint x="10" y="500" />
            </Array>
          </mxGeometry>
        </mxCell>
        <mxCell id="kIITiGrVpUH5rOBRVPct-20" value="&lt;font style=&quot;font-size: 16px;&quot;&gt;array[i_min] &amp;gt; i&lt;/font&gt;" style="rhombus;whiteSpace=wrap;html=1;" vertex="1" parent="1">
          <mxGeometry x="270" y="610" width="140" height="90" as="geometry" />
        </mxCell>
        <mxCell id="kIITiGrVpUH5rOBRVPct-21" value="yes" style="text;html=1;align=center;verticalAlign=middle;resizable=0;points=[];autosize=1;strokeColor=none;fillColor=none;" vertex="1" parent="1">
          <mxGeometry x="340" y="700" width="40" height="30" as="geometry" />
        </mxCell>
        <mxCell id="kIITiGrVpUH5rOBRVPct-22" value="no" style="text;html=1;align=center;verticalAlign=middle;resizable=0;points=[];autosize=1;strokeColor=none;fillColor=none;" vertex="1" parent="1">
          <mxGeometry x="200" y="460" width="40" height="30" as="geometry" />
        </mxCell>
        <mxCell id="kIITiGrVpUH5rOBRVPct-43" style="edgeStyle=orthogonalEdgeStyle;rounded=0;orthogonalLoop=1;jettySize=auto;html=1;" edge="1" parent="1" source="kIITiGrVpUH5rOBRVPct-24">
          <mxGeometry relative="1" as="geometry">
            <mxPoint x="450" y="500" as="targetPoint" />
          </mxGeometry>
        </mxCell>
        <mxCell id="kIITiGrVpUH5rOBRVPct-24" value="&lt;div style=&quot;font-size: 16px;&quot;&gt;&lt;font style=&quot;font-size: 16px;&quot;&gt;&amp;nbsp; i_max,&lt;font style=&quot;font-size: 16px;&quot;&gt;&lt;br&gt;&lt;/font&gt;&lt;/font&gt;&lt;/div&gt;&lt;div style=&quot;font-size: 16px;&quot;&gt;&lt;font style=&quot;font-size: 16px;&quot;&gt;&lt;font style=&quot;font-size: 16px;&quot;&gt;i_min&lt;/font&gt;&lt;br&gt;&lt;/font&gt;&lt;/div&gt;" style="rounded=1;whiteSpace=wrap;html=1;" vertex="1" parent="1">
          <mxGeometry x="280" y="470" width="120" height="60" as="geometry" />
        </mxCell>
        <mxCell id="kIITiGrVpUH5rOBRVPct-25" value="&lt;font style=&quot;font-size: 16px;&quot;&gt;i_min &amp;lt; i_max&lt;br&gt;&lt;/font&gt;" style="rhombus;whiteSpace=wrap;html=1;" vertex="1" parent="1">
          <mxGeometry x="450" y="445" width="150" height="110" as="geometry" />
        </mxCell>
        <mxCell id="kIITiGrVpUH5rOBRVPct-32" style="edgeStyle=orthogonalEdgeStyle;rounded=0;orthogonalLoop=1;jettySize=auto;html=1;entryX=0.5;entryY=1;entryDx=0;entryDy=0;" edge="1" parent="1" source="kIITiGrVpUH5rOBRVPct-27" target="kIITiGrVpUH5rOBRVPct-30">
          <mxGeometry relative="1" as="geometry">
            <mxPoint x="720" y="450" as="targetPoint" />
          </mxGeometry>
        </mxCell>
        <mxCell id="kIITiGrVpUH5rOBRVPct-27" value="&lt;font style=&quot;font-size: 16px;&quot;&gt;i_min, i_max = i_max, i_min&lt;br&gt;&lt;/font&gt;" style="rounded=1;whiteSpace=wrap;html=1;" vertex="1" parent="1">
          <mxGeometry x="475" y="605" width="120" height="60" as="geometry" />
        </mxCell>
        <mxCell id="kIITiGrVpUH5rOBRVPct-29" value="&lt;div&gt;yes&lt;/div&gt;" style="text;html=1;align=center;verticalAlign=middle;resizable=0;points=[];autosize=1;strokeColor=none;fillColor=none;" vertex="1" parent="1">
          <mxGeometry x="530" y="569.5" width="40" height="30" as="geometry" />
        </mxCell>
        <mxCell id="kIITiGrVpUH5rOBRVPct-34" style="edgeStyle=orthogonalEdgeStyle;rounded=0;orthogonalLoop=1;jettySize=auto;html=1;" edge="1" parent="1" source="kIITiGrVpUH5rOBRVPct-30" target="kIITiGrVpUH5rOBRVPct-35">
          <mxGeometry relative="1" as="geometry">
            <mxPoint x="720" y="300" as="targetPoint" />
          </mxGeometry>
        </mxCell>
        <mxCell id="uLLLfqZ_tfSY_vtkHngd-3" style="edgeStyle=orthogonalEdgeStyle;rounded=0;orthogonalLoop=1;jettySize=auto;html=1;entryX=1;entryY=0.5;entryDx=0;entryDy=0;" edge="1" parent="1" source="kIITiGrVpUH5rOBRVPct-30" target="kIITiGrVpUH5rOBRVPct-36">
          <mxGeometry relative="1" as="geometry">
            <mxPoint x="610" y="280" as="targetPoint" />
          </mxGeometry>
        </mxCell>
        <mxCell id="kIITiGrVpUH5rOBRVPct-30" value="&lt;div style=&quot;font-size: 15px;&quot;&gt;&lt;font style=&quot;font-size: 15px;&quot;&gt;i = i_max + 1,&lt;/font&gt;&lt;/div&gt;&lt;div style=&quot;font-size: 15px;&quot;&gt;&lt;font style=&quot;font-size: 15px;&quot;&gt;i &amp;lt; i_min,&lt;/font&gt;&lt;/div&gt;&lt;div style=&quot;font-size: 15px;&quot;&gt;&lt;font style=&quot;font-size: 15px;&quot;&gt;&lt;font style=&quot;font-size: 15px;&quot;&gt;i++&lt;/font&gt;&lt;font style=&quot;font-size: 15px;&quot;&gt;&lt;br&gt;&lt;/font&gt;&lt;/font&gt;&lt;/div&gt;" style="shape=hexagon;perimeter=hexagonPerimeter2;whiteSpace=wrap;html=1;fixedSize=1;" vertex="1" parent="1">
          <mxGeometry x="660" y="360" width="120" height="80" as="geometry" />
        </mxCell>
        <mxCell id="kIITiGrVpUH5rOBRVPct-33" value="no" style="text;html=1;align=center;verticalAlign=middle;resizable=0;points=[];autosize=1;strokeColor=none;fillColor=none;" vertex="1" parent="1">
          <mxGeometry x="595" y="470" width="40" height="30" as="geometry" />
        </mxCell>
        <mxCell id="uLLLfqZ_tfSY_vtkHngd-1" style="edgeStyle=orthogonalEdgeStyle;rounded=0;orthogonalLoop=1;jettySize=auto;html=1;entryX=1;entryY=0.5;entryDx=0;entryDy=0;" edge="1" parent="1" source="kIITiGrVpUH5rOBRVPct-35" target="kIITiGrVpUH5rOBRVPct-30">
          <mxGeometry relative="1" as="geometry">
            <mxPoint x="820" y="400" as="targetPoint" />
            <Array as="points">
              <mxPoint x="800" y="275" />
              <mxPoint x="800" y="400" />
            </Array>
          </mxGeometry>
        </mxCell>
        <mxCell id="kIITiGrVpUH5rOBRVPct-35" value="&lt;font style=&quot;font-size: 15px;&quot;&gt;sum_nums = sum_nums + array[i]&lt;/font&gt;" style="rounded=1;whiteSpace=wrap;html=1;" vertex="1" parent="1">
          <mxGeometry x="660" y="240" width="120" height="70" as="geometry" />
        </mxCell>
        <mxCell id="kIITiGrVpUH5rOBRVPct-40" style="edgeStyle=orthogonalEdgeStyle;rounded=0;orthogonalLoop=1;jettySize=auto;html=1;entryX=1;entryY=0.5;entryDx=0;entryDy=0;" edge="1" parent="1" source="kIITiGrVpUH5rOBRVPct-36" target="kIITiGrVpUH5rOBRVPct-39">
          <mxGeometry relative="1" as="geometry" />
        </mxCell>
        <mxCell id="kIITiGrVpUH5rOBRVPct-36" value="&lt;font style=&quot;font-size: 16px;&quot;&gt;sum_nums&lt;/font&gt;" style="shape=document;whiteSpace=wrap;html=1;boundedLbl=1;" vertex="1" parent="1">
          <mxGeometry x="470" y="240" width="120" height="80" as="geometry" />
        </mxCell>
        <mxCell id="kIITiGrVpUH5rOBRVPct-39" value="&lt;font style=&quot;font-size: 16px;&quot;&gt;Конец&lt;/font&gt;" style="ellipse;whiteSpace=wrap;html=1;" vertex="1" parent="1">
          <mxGeometry x="270" y="240" width="120" height="80" as="geometry" />
        </mxCell>
        <mxCell id="kIITiGrVpUH5rOBRVPct-45" style="edgeStyle=orthogonalEdgeStyle;rounded=0;orthogonalLoop=1;jettySize=auto;html=1;entryX=0.411;entryY=-0.025;entryDx=0;entryDy=0;entryPerimeter=0;" edge="1" parent="1" source="kIITiGrVpUH5rOBRVPct-25" target="kIITiGrVpUH5rOBRVPct-27">
          <mxGeometry relative="1" as="geometry" />
        </mxCell>
        <mxCell id="kIITiGrVpUH5rOBRVPct-47" value="" style="endArrow=classic;html=1;rounded=0;" edge="1" parent="1">
          <mxGeometry width="50" height="50" relative="1" as="geometry">
            <mxPoint x="600" y="500" as="sourcePoint" />
            <mxPoint x="720" y="500" as="targetPoint" />
          </mxGeometry>
        </mxCell>
        <mxCell id="uLLLfqZ_tfSY_vtkHngd-4" value="no" style="text;html=1;align=center;verticalAlign=middle;resizable=0;points=[];autosize=1;strokeColor=none;fillColor=none;" vertex="1" parent="1">
          <mxGeometry x="620" y="400" width="40" height="30" as="geometry" />
        </mxCell>
        <mxCell id="uLLLfqZ_tfSY_vtkHngd-6" value="&lt;div&gt;yes&lt;/div&gt;" style="text;html=1;align=center;verticalAlign=middle;resizable=0;points=[];autosize=1;strokeColor=none;fillColor=none;" vertex="1" parent="1">
          <mxGeometry x="720" y="330" width="40" height="30" as="geometry" />
        </mxCell>
      </root>
    </mxGraphModel>
  </diagram>
  <diagram id="wXaBq1holBkRDMarJPQa" name="Страница — 4">
    <mxGraphModel dx="2187" dy="1253" grid="1" gridSize="10" guides="1" tooltips="1" connect="1" arrows="1" fold="1" page="1" pageScale="1" pageWidth="827" pageHeight="1169" math="0" shadow="0">
      <root>
        <mxCell id="0" />
        <mxCell id="1" parent="0" />
        <mxCell id="DaVJwaTvR7U1E678ZM-Q-1" value="&lt;div style=&quot;color: rgb(255, 241, 243);&quot;&gt;&lt;pre style=&quot;font-family:&#39;JetBrains Mono&#39;,monospace;font-size:13,5pt;&quot;&gt;&lt;span style=&quot;color: rgb(114, 105, 106); font-style: italic; background-color: rgb(255, 255, 255);&quot;&gt;&#39;Найти среднее арифметическое среди всех элементов массива.&#39;&lt;/span&gt;&lt;/pre&gt;&lt;/div&gt;" style="text;whiteSpace=wrap;html=1;" vertex="1" parent="1">
          <mxGeometry x="-785.09" y="20" width="470" height="60" as="geometry" />
        </mxCell>
        <mxCell id="9UhoFPaM6F_2KIQMfARV-1" style="edgeStyle=orthogonalEdgeStyle;rounded=0;orthogonalLoop=1;jettySize=auto;html=1;entryX=0.5;entryY=0;entryDx=0;entryDy=0;" edge="1" parent="1" source="9UhoFPaM6F_2KIQMfARV-2" target="9UhoFPaM6F_2KIQMfARV-4">
          <mxGeometry relative="1" as="geometry" />
        </mxCell>
        <mxCell id="9UhoFPaM6F_2KIQMfARV-2" value="&lt;font style=&quot;font-size: 16px;&quot;&gt;Начало&lt;/font&gt;" style="ellipse;whiteSpace=wrap;html=1;" vertex="1" parent="1">
          <mxGeometry x="-610.09" y="110" width="120" height="80" as="geometry" />
        </mxCell>
        <mxCell id="9UhoFPaM6F_2KIQMfARV-3" style="edgeStyle=orthogonalEdgeStyle;rounded=0;orthogonalLoop=1;jettySize=auto;html=1;entryX=0.5;entryY=0;entryDx=0;entryDy=0;" edge="1" parent="1" source="9UhoFPaM6F_2KIQMfARV-4" target="9UhoFPaM6F_2KIQMfARV-5">
          <mxGeometry relative="1" as="geometry" />
        </mxCell>
        <mxCell id="9UhoFPaM6F_2KIQMfARV-4" value="&lt;font style=&quot;font-size: 16px;&quot;&gt;n, array[n]&lt;/font&gt;" style="shape=parallelogram;perimeter=parallelogramPerimeter;whiteSpace=wrap;html=1;fixedSize=1;" vertex="1" parent="1">
          <mxGeometry x="-610.09" y="240" width="120" height="60" as="geometry" />
        </mxCell>
        <mxCell id="9UhoFPaM6F_2KIQMfARV-5" value="&lt;div style=&quot;font-size: 15px;&quot;&gt;&lt;font style=&quot;font-size: 15px;&quot;&gt;len_array = 0&lt;/font&gt;&lt;/div&gt;&lt;div style=&quot;font-size: 15px;&quot;&gt;&lt;font style=&quot;font-size: 15px;&quot;&gt;&lt;font style=&quot;font-size: 15px;&quot;&gt;sum_array = 0&lt;/font&gt;&lt;/font&gt;&lt;/div&gt;&lt;div style=&quot;font-size: 15px;&quot;&gt;&lt;font style=&quot;font-size: 15px;&quot;&gt;&lt;font style=&quot;font-size: 15px;&quot;&gt;mean = 0&lt;br&gt;&lt;/font&gt;&lt;/font&gt;&lt;/div&gt;" style="rounded=1;whiteSpace=wrap;html=1;" vertex="1" parent="1">
          <mxGeometry x="-610.09" y="350" width="120" height="60" as="geometry" />
        </mxCell>
        <mxCell id="TVCgAdNT-t-rSk1JhASn-2" style="edgeStyle=orthogonalEdgeStyle;rounded=0;orthogonalLoop=1;jettySize=auto;html=1;" edge="1" parent="1" source="9UhoFPaM6F_2KIQMfARV-6" target="TVCgAdNT-t-rSk1JhASn-1">
          <mxGeometry relative="1" as="geometry" />
        </mxCell>
        <mxCell id="Kn-VIvVj6pDWK99sV8sH-3" style="edgeStyle=orthogonalEdgeStyle;rounded=0;orthogonalLoop=1;jettySize=auto;html=1;entryX=0;entryY=0.5;entryDx=0;entryDy=0;" edge="1" parent="1" source="9UhoFPaM6F_2KIQMfARV-6" target="Kn-VIvVj6pDWK99sV8sH-2">
          <mxGeometry relative="1" as="geometry" />
        </mxCell>
        <mxCell id="9UhoFPaM6F_2KIQMfARV-6" value="&lt;div style=&quot;font-size: 16px;&quot;&gt;&lt;font style=&quot;font-size: 16px;&quot;&gt;i = 0, i &amp;lt; n,&lt;/font&gt;&lt;/div&gt;&lt;div style=&quot;font-size: 16px;&quot;&gt;&lt;font style=&quot;font-size: 16px;&quot;&gt;i++&lt;/font&gt;&lt;br&gt;&lt;/div&gt;" style="shape=hexagon;perimeter=hexagonPerimeter2;whiteSpace=wrap;html=1;fixedSize=1;" vertex="1" parent="1">
          <mxGeometry x="-610.09" y="460" width="120" height="80" as="geometry" />
        </mxCell>
        <mxCell id="9UhoFPaM6F_2KIQMfARV-7" style="edgeStyle=orthogonalEdgeStyle;rounded=0;orthogonalLoop=1;jettySize=auto;html=1;entryX=0.5;entryY=0;entryDx=0;entryDy=0;" edge="1" parent="1" source="9UhoFPaM6F_2KIQMfARV-5" target="9UhoFPaM6F_2KIQMfARV-6">
          <mxGeometry relative="1" as="geometry" />
        </mxCell>
        <mxCell id="Kn-VIvVj6pDWK99sV8sH-1" style="edgeStyle=orthogonalEdgeStyle;rounded=0;orthogonalLoop=1;jettySize=auto;html=1;entryX=0;entryY=0.5;entryDx=0;entryDy=0;" edge="1" parent="1" source="TVCgAdNT-t-rSk1JhASn-1" target="9UhoFPaM6F_2KIQMfARV-6">
          <mxGeometry relative="1" as="geometry">
            <mxPoint x="-650.09" y="500" as="targetPoint" />
            <Array as="points">
              <mxPoint x="-640.09" y="635" />
              <mxPoint x="-640.09" y="500" />
            </Array>
          </mxGeometry>
        </mxCell>
        <mxCell id="TVCgAdNT-t-rSk1JhASn-1" value="&lt;font style=&quot;font-size: 16px;&quot;&gt;sum_array = sum_array + array[i]&lt;/font&gt;" style="rounded=1;whiteSpace=wrap;html=1;" vertex="1" parent="1">
          <mxGeometry x="-620.09" y="600" width="140" height="70" as="geometry" />
        </mxCell>
        <mxCell id="Kn-VIvVj6pDWK99sV8sH-2" value="&lt;div style=&quot;font-size: 16px;&quot;&gt;&lt;font style=&quot;font-size: 16px;&quot;&gt;mean =&lt;/font&gt;&lt;/div&gt;&lt;div style=&quot;font-size: 16px;&quot;&gt;&lt;font style=&quot;font-size: 16px;&quot;&gt;&amp;nbsp;sum_array / n&lt;/font&gt;&lt;/div&gt;" style="rounded=1;whiteSpace=wrap;html=1;" vertex="1" parent="1">
          <mxGeometry x="-430.09000000000003" y="470" width="120" height="60" as="geometry" />
        </mxCell>
        <mxCell id="Kn-VIvVj6pDWK99sV8sH-8" style="edgeStyle=orthogonalEdgeStyle;rounded=0;orthogonalLoop=1;jettySize=auto;html=1;entryX=0.5;entryY=0;entryDx=0;entryDy=0;" edge="1" parent="1" source="Kn-VIvVj6pDWK99sV8sH-4" target="Kn-VIvVj6pDWK99sV8sH-7">
          <mxGeometry relative="1" as="geometry" />
        </mxCell>
        <mxCell id="Kn-VIvVj6pDWK99sV8sH-4" value="&lt;font style=&quot;font-size: 16px;&quot;&gt;mean&lt;/font&gt;" style="shape=document;whiteSpace=wrap;html=1;boundedLbl=1;" vertex="1" parent="1">
          <mxGeometry x="-250.09" y="470" width="120" height="80" as="geometry" />
        </mxCell>
        <mxCell id="Kn-VIvVj6pDWK99sV8sH-6" style="edgeStyle=orthogonalEdgeStyle;rounded=0;orthogonalLoop=1;jettySize=auto;html=1;" edge="1" parent="1" source="Kn-VIvVj6pDWK99sV8sH-2">
          <mxGeometry relative="1" as="geometry">
            <mxPoint x="-250.09" y="500" as="targetPoint" />
          </mxGeometry>
        </mxCell>
        <mxCell id="Kn-VIvVj6pDWK99sV8sH-7" value="&lt;font style=&quot;font-size: 16px;&quot;&gt;Конец&lt;/font&gt;" style="ellipse;whiteSpace=wrap;html=1;" vertex="1" parent="1">
          <mxGeometry x="-250.09" y="610" width="120" height="80" as="geometry" />
        </mxCell>
      </root>
    </mxGraphModel>
  </diagram>
</mxfile>
